PathFileType	4	(X/Y/Z)	s05c0303.trc
DataRate	CameraRate	NumFrames	NumMarkers	Units	OrigDataRate	OrigDataStartFrame	OrigNumFrames
200	200	4	48	mm	200	250	2000
Frame#	Time	racr			lacr			c7			jug			rlel			rdr			llel			ldr			s2			lic			ric			lasi			rasi			rpsi			lpsi			rgt			lgt			rth1			rth2			rth3			rth4			rlfc			rsh1			rsh2			rsh3			rsh4			rlmal			rcal			rtoe			rmt5			rmt1			lth1			lth2			lth4			lth3			llfc			lmfc			lsh1			lsh2			lsh3			lsh4			llmal			lcal			ltoe			lmt5			SBIKE			LBIKE			RBIKE			
		X1	Y1	Z1	X2	Y2	Z2	X3	Y3	Z3	X4	Y4	Z4	X5	Y5	Z5	X6	Y6	Z6	X7	Y7	Z7	X8	Y8	Z8	X9	Y9	Z9	X10	Y10	Z10	X11	Y11	Z11	X12	Y12	Z12	X13	Y13	Z13	X14	Y14	Z14	X15	Y15	Z15	X16	Y16	Z16	X17	Y17	Z17	X18	Y18	Z18	X19	Y19	Z19	X20	Y20	Z20	X21	Y21	Z21	X22	Y22	Z22	X23	Y23	Z23	X24	Y24	Z24	X25	Y25	Z25	X26	Y26	Z26	X27	Y27	Z27	X28	Y28	Z28	X29	Y29	Z29	X30	Y30	Z30	X31	Y31	Z31	X32	Y32	Z32	X33	Y33	Z33	X34	Y34	Z34	X35	Y35	Z35	X36	Y36	Z36	X37	Y37	Z37	X38	Y38	Z38	X39	Y39	Z39	X40	Y40	Z40	X41	Y41	Z41	X42	Y42	Z42	X43	Y43	Z43	X44	Y44	Z44	X45	Y45	Z45	X46	Y46	Z46	X47	Y47	Z47	X48	Y48	Z48	
250	1.2500	426.536641	1362.751889	-155.890724	426.581105	1370.930968	-449.531467	404.349365	1446.574827	-305.976703	389.492894	1286.086762	-303.405795	515.227855	1118.732816	-55.695038	687.916148	917.343204	-99.584060	489.131010	1111.350042	-544.396060	675.099475	915.648471	-470.998328	-122.357986	1155.935777	-282.946430	27.476918	1158.592419	-425.904959	33.898803	1187.191871	-147.352715	77.045796	1108.066811	-390.437714	70.527634	1122.950941	-170.930972	-89.237574	1202.527438	-243.416319	-85.783089	1202.598200	-332.244405	-12.757524	1065.415374	-106.564968	-48.379424	1056.883884	-449.715287	88.384402	1010.260684	-90.224294	176.639371	996.882691	-82.529346	244.462911	940.422707	-83.287496	191.572330	1029.167000	-93.685915	379.538707	863.232805	-106.821335	319.081730	770.594729	-84.773434	307.870004	683.274147	-99.183445	258.064511	613.619488	-104.354121	336.052272	676.538884	-125.262013	214.993447	490.255889	-118.205830	144.432383	451.989455	-164.296503	440.008883	450.497607	-159.422345	340.817735	421.074956	-94.037280	0.000000	0.000000	-0.000000	30.305989	937.282008	-473.233312	98.823364	885.762520	-475.935652	128.673599	905.815398	-465.444660	132.484588	801.915153	-480.253420	206.586791	672.240337	-450.903049	197.318333	665.644339	-341.363849	117.388944	579.429765	-469.334920	84.562300	499.633624	-452.618766	14.051999	445.978536	-448.675241	110.017080	484.934290	-428.138320	-51.458461	345.178906	-433.423291	-123.911950	315.789743	-387.648331	158.541296	233.956533	-401.905637	46.055062	231.722791	-461.093875	-174.158388	897.508275	-276.538945	-52.883631	79.136954	-474.175300	-52.915120	79.224830	-76.486216	
251	1.2550	426.493540	1362.711984	-155.860339	426.547664	1370.908507	-449.521657	404.327208	1446.531115	-305.977603	389.444289	1286.038365	-303.430002	515.205646	1118.703642	-55.685116	687.900435	917.327708	-99.603161	489.149166	1111.349720	-544.382688	675.117013	915.653856	-470.982450	-122.394349	1155.947940	-282.999082	27.441272	1158.625733	-425.974616	33.839356	1187.199248	-147.397542	76.977797	1108.056272	-390.490113	70.464087	1122.991278	-170.946242	-89.274560	1202.536185	-243.459009	-85.800233	1202.603512	-332.278618	-12.816862	1065.481300	-106.574108	-48.416042	1056.867652	-449.734642	88.360753	1010.321167	-90.219545	176.620158	996.969919	-82.504071	244.462025	940.525321	-83.242186	191.486823	1029.314295	-93.659980	379.545316	863.399164	-106.759348	319.057161	770.787371	-84.723100	307.802962	683.483501	-99.153757	258.021784	613.799830	-104.345675	336.015842	676.768246	-125.262713	214.933030	490.477818	-118.198045	144.318928	452.243299	-164.291679	439.912696	450.638753	-159.417279	340.696122	421.252653	-94.040265	0.000000	0.000000	-0.000000	30.250438	937.242343	-473.222901	98.774684	885.701226	-475.902461	128.624905	905.741304	-465.424771	132.384612	801.836741	-480.202888	206.464389	672.161477	-450.829589	197.152965	665.551244	-341.325911	117.301899	579.302677	-469.301628	84.502400	499.476013	-452.588301	14.057532	445.770308	-448.653716	109.967972	484.798863	-428.088416	-51.400244	344.897329	-433.425001	-123.851514	315.497458	-387.649770	158.645559	233.823911	-401.913674	46.146518	231.529102	-461.110570	-174.123991	897.563618	-276.692412	-52.871870	79.155132	-474.179153	-52.912456	79.237230	-76.484829	
252	1.2600	426.456356	1362.618918	-155.844584	426.554979	1370.881461	-449.497720	404.314832	1446.468081	-305.991068	389.413662	1286.003545	-303.461856	515.208442	1118.676061	-55.694390	687.883198	917.328792	-99.604306	489.180438	1111.349100	-544.344180	675.123937	915.643281	-470.968966	-122.429741	1155.951443	-283.031589	27.410762	1158.608814	-425.990393	33.821918	1187.210095	-147.408740	76.957247	1108.036062	-390.495581	70.434434	1123.009403	-170.970988	-89.332920	1202.546785	-243.499931	-85.825426	1202.602506	-332.320251	-12.850907	1065.495856	-106.591335	-48.458214	1056.840263	-449.757929	88.324105	1010.385957	-90.192469	176.597696	997.073988	-82.513563	244.471178	940.652907	-83.201023	191.413351	1029.425403	-93.638373	379.558451	863.571453	-106.711297	319.048755	770.956839	-84.695738	307.787522	683.657405	-99.118135	257.960047	614.023222	-104.340514	335.988884	676.990151	-125.210176	214.849672	490.694917	-118.203182	144.227070	452.478674	-164.304571	439.795634	450.800606	-159.410842	340.601372	421.432442	-94.037029	0.000000	0.000000	-0.000000	30.207664	937.191314	-473.223139	98.702684	885.633899	-475.878276	128.564897	905.654786	-465.402728	132.291693	801.766924	-480.177760	206.347556	672.064215	-450.783090	197.005304	665.436562	-341.291300	117.222718	579.169695	-469.271018	84.463441	499.319310	-452.543742	14.046421	445.586354	-448.636063	109.930623	484.675573	-428.088324	-51.355042	344.620303	-433.421558	-123.781987	315.212963	-387.657962	158.759685	233.676793	-401.899538	46.248685	231.289984	-461.093125	-174.058913	897.556879	-276.748443	-52.874211	79.159038	-474.178574	-52.919028	79.244444	-76.475269	
253	1.2650	426.409349	1362.577165	-155.854818	426.531806	1370.865082	-449.479799	404.305520	1446.423323	-305.968100	389.379406	1285.949114	-303.470741	515.198159	1118.657474	-55.716639	687.878287	917.338825	-99.587709	489.218571	1111.339623	-544.320903	675.115528	915.638300	-470.962140	-122.470580	1155.946819	-283.069624	27.377984	1158.597506	-426.026097	33.788362	1187.225746	-147.436094	76.911144	1108.020901	-390.526998	70.383460	1123.022570	-170.992005	-89.369653	1202.547321	-243.535335	-85.855372	1202.587652	-332.346628	-12.908725	1065.515494	-106.592596	-48.477216	1056.810351	-449.787759	88.282592	1010.452623	-90.186320	176.559862	997.174104	-82.472799	244.457685	940.770758	-83.167277	191.386342	1029.518229	-93.614527	379.556993	863.785099	-106.724134	319.036962	771.140015	-84.665502	307.739721	683.793854	-99.080917	257.908845	614.229946	-104.325912	335.952938	677.154213	-125.229863	214.764535	490.902701	-118.196620	144.122167	452.742976	-164.317679	439.705533	450.948212	-159.399188	340.506644	421.624141	-94.020808	0.000000	0.000000	-0.000000	30.160973	937.143709	-473.222973	98.635112	885.572583	-475.856698	128.492722	905.589258	-465.381188	132.182136	801.687391	-480.143656	206.223649	671.953116	-450.745037	196.866085	665.350020	-341.261361	117.161119	579.037176	-469.257284	84.418810	499.156228	-452.509031	14.045390	445.399183	-448.629167	109.922068	484.550188	-428.052982	-51.298858	344.415610	-433.432303	-123.719993	314.920558	-387.651861	158.864956	233.573635	-401.892852	46.342319	231.133198	-461.093319	-174.133466	897.513104	-276.602150	-52.871112	79.139242	-474.183916	-52.910521	79.232720	-76.490399	
